TITLE ""
FILE "Disc5Track83.mp3" MP3
  TRACK 01 AUDIO
    TITLE "Disc5Track83_01"
    INDEX 01 00:00:00
  TRACK 02 AUDIO
    TITLE "Disc5Track83_02"
    INDEX 01 00:01:04
  TRACK 03 AUDIO
    TITLE "Disc5Track83_03"
    INDEX 01 00:02:05
  TRACK 04 AUDIO
    TITLE "Disc5Track83_04"
    INDEX 01 00:03:18
  TRACK 05 AUDIO
    TITLE "Disc5Track83_05"
    INDEX 01 00:03:60
  TRACK 06 AUDIO
    TITLE "Disc5Track83_06"
    INDEX 01 00:04:69
  TRACK 07 AUDIO
    TITLE "Disc5Track83_07"
    INDEX 01 00:05:70
  TRACK 08 AUDIO
    TITLE "Disc5Track83_08"
    INDEX 01 00:07:06
  TRACK 09 AUDIO
    TITLE "Disc5Track83_09"
    INDEX 01 00:07:44
  TRACK 10 AUDIO
    TITLE "Disc5Track83_10"
    INDEX 01 00:08:55
  TRACK 11 AUDIO
    TITLE "Disc5Track83_11"
    INDEX 01 00:09:48
  TRACK 12 AUDIO
    TITLE "Disc5Track83_12"
    INDEX 01 00:10:58
  TRACK 13 AUDIO
    TITLE "Disc5Track83_13"
    INDEX 01 00:12:37
  TRACK 14 AUDIO
    TITLE "Disc5Track83_14"
    INDEX 01 00:12:70
  TRACK 15 AUDIO
    TITLE "Disc5Track83_15"
    INDEX 01 00:14:12
  TRACK 16 AUDIO
    TITLE "Disc5Track83_16"
    INDEX 01 00:15:41
  TRACK 17 AUDIO
    TITLE "Disc5Track83_17"
    INDEX 01 00:16:60
  TRACK 18 AUDIO
    TITLE "Disc5Track83_18"
    INDEX 01 00:17:19
  TRACK 19 AUDIO
    TITLE "Disc5Track83_19"
    INDEX 01 00:18:32
  TRACK 20 AUDIO
    TITLE "Disc5Track83_20"
    INDEX 01 00:19:19
  TRACK 21 AUDIO
    TITLE "Disc5Track83_21"
    INDEX 01 00:20:37
  TRACK 22 AUDIO
    TITLE "Disc5Track83_22"
    INDEX 01 00:20:68
  TRACK 23 AUDIO
    TITLE "Disc5Track83_23"
    INDEX 01 00:22:04
  TRACK 24 AUDIO
    TITLE "Disc5Track83_24"
    INDEX 01 00:23:11
  TRACK 25 AUDIO
    TITLE "Disc5Track83_25"
    INDEX 01 00:24:25
  TRACK 26 AUDIO
    TITLE "Disc5Track83_26"
    INDEX 01 00:24:62
  TRACK 27 AUDIO
    TITLE "Disc5Track83_27"
    INDEX 01 00:26:04
  TRACK 28 AUDIO
    TITLE "Disc5Track83_28"
    INDEX 01 00:27:11
  TRACK 29 AUDIO
    TITLE "Disc5Track83_29"
    INDEX 01 00:28:28
  TRACK 30 AUDIO
    TITLE "Disc5Track83_30"
    INDEX 01 00:28:61
  TRACK 31 AUDIO
    TITLE "Disc5Track83_31"
    INDEX 01 00:29:71
  TRACK 32 AUDIO
    TITLE "Disc5Track83_32"
    INDEX 01 00:30:62
  TRACK 33 AUDIO
    TITLE "Disc5Track83_33"
    INDEX 01 00:31:72
  TRACK 34 AUDIO
    TITLE "Disc5Track83_34"
    INDEX 01 00:34:33
  TRACK 35 AUDIO
    TITLE "Disc5Track83_35"
    INDEX 01 00:34:64
  TRACK 36 AUDIO
    TITLE "Disc5Track83_36"
    INDEX 01 00:35:75
  TRACK 37 AUDIO
    TITLE "Disc5Track83_37"
    INDEX 01 00:37:15
  TRACK 38 AUDIO
    TITLE "Disc5Track83_38"
    INDEX 01 00:38:23
  TRACK 39 AUDIO
    TITLE "Disc5Track83_39"
    INDEX 01 00:40:51
  TRACK 40 AUDIO
    TITLE "Disc5Track83_40"
    INDEX 01 00:41:09
  TRACK 41 AUDIO
    TITLE "Disc5Track83_41"
    INDEX 01 00:42:19
  TRACK 42 AUDIO
    TITLE "Disc5Track83_42"
    INDEX 01 00:43:16
  TRACK 43 AUDIO
    TITLE "Disc5Track83_43"
    INDEX 01 00:44:23
  TRACK 44 AUDIO
    TITLE "Disc5Track83_44"
    INDEX 01 00:44:62
  TRACK 45 AUDIO
    TITLE "Disc5Track83_45"
    INDEX 01 00:45:72
  TRACK 46 AUDIO
    TITLE "Disc5Track83_46"
    INDEX 01 00:46:75
  TRACK 47 AUDIO
    TITLE "Disc5Track83_47"
    INDEX 01 00:48:07
  TRACK 48 AUDIO
    TITLE "Disc5Track83_48"
    INDEX 01 00:50:02
  TRACK 49 AUDIO
    TITLE "Disc5Track83_49"
    INDEX 01 00:50:36
  TRACK 50 AUDIO
    TITLE "Disc5Track83_50"
    INDEX 01 00:51:43
  TRACK 51 AUDIO
    TITLE "Disc5Track83_51"
    INDEX 01 00:53:54
  TRACK 52 AUDIO
    TITLE "Disc5Track83_52"
    INDEX 01 00:54:59
  TRACK 53 AUDIO
    TITLE "Disc5Track83_53"
    INDEX 01 00:56:52
  TRACK 54 AUDIO
    TITLE "Disc5Track83_54"
    INDEX 01 00:57:10
  TRACK 55 AUDIO
    TITLE "Disc5Track83_55"
    INDEX 01 00:58:49
  TRACK 56 AUDIO
    TITLE "Disc5Track83_56"
    INDEX 01 01:00:63
  TRACK 57 AUDIO
    TITLE "Disc5Track83_57"
    INDEX 01 01:02:25
  TRACK 58 AUDIO
    TITLE "Disc5Track83_58"
    INDEX 01 01:04:28
  TRACK 59 AUDIO
    TITLE "Disc5Track83_59"
    INDEX 01 01:04:61
  TRACK 60 AUDIO
    TITLE "Disc5Track83_60"
    INDEX 01 01:05:74
  TRACK 61 AUDIO
    TITLE "Disc5Track83_61"
    INDEX 01 01:07:46
  TRACK 62 AUDIO
    TITLE "Disc5Track83_62"
    INDEX 01 01:08:57
  TRACK 63 AUDIO
    TITLE "Disc5Track83_63"
    INDEX 01 01:09:17
  TRACK 64 AUDIO
    TITLE "Disc5Track83_64"
    INDEX 01 01:10:27
  TRACK 65 AUDIO
    TITLE "Disc5Track83_65"
    INDEX 01 01:12:06
  TRACK 66 AUDIO
    TITLE "Disc5Track83_66"
    INDEX 01 01:13:15
